<mxfile modified="2022-06-13T07:52:57.913Z" host="app.diagrams.net" agent="5.0 (Macintosh; Intel Mac OS X 10_15_7) AppleWebKit/537.36 (KHTML, like Gecko) Chrome/102.0.5005.61 Safari/537.36" etag="PdrJBFS9d6azDHa5qe-K" version="20.0.1" type="github">
  <diagram id="Ht1M8jgEwFfnCIfOTk4-" name="Page-1">
    <mxGraphModel dx="2326" dy="2103" grid="1" gridSize="10" guides="1" tooltips="1" connect="1" arrows="1" fold="1" page="1" pageScale="1" pageWidth="1169" pageHeight="827" math="0" shadow="0">
      <root>
        <mxCell id="0" />
        <mxCell id="1" parent="0" />
        <mxCell id="UEzPUAAOIrF-is8g5C7q-101" value="" style="edgeStyle=orthogonalEdgeStyle;rounded=0;orthogonalLoop=1;jettySize=auto;html=1;endArrow=open;endFill=0;strokeWidth=2;" parent="1" source="UEzPUAAOIrF-is8g5C7q-84" edge="1">
          <mxGeometry relative="1" as="geometry">
            <mxPoint x="958" y="349" as="targetPoint" />
          </mxGeometry>
        </mxCell>
        <mxCell id="Kxm4nDpjLRUfAWtQnXv4-36" value="VPC" style="points=[[0,0],[0.25,0],[0.5,0],[0.75,0],[1,0],[1,0.25],[1,0.5],[1,0.75],[1,1],[0.75,1],[0.5,1],[0.25,1],[0,1],[0,0.75],[0,0.5],[0,0.25]];outlineConnect=0;gradientColor=none;html=1;whiteSpace=wrap;fontSize=12;fontStyle=0;container=1;pointerEvents=0;collapsible=0;recursiveResize=0;shape=mxgraph.aws4.group;grIcon=mxgraph.aws4.group_vpc;strokeColor=#248814;fillColor=none;verticalAlign=top;align=left;spacingLeft=30;fontColor=#AAB7B8;dashed=0;" vertex="1" parent="1">
          <mxGeometry x="560" y="44" width="640" height="866" as="geometry" />
        </mxCell>
        <mxCell id="Kxm4nDpjLRUfAWtQnXv4-53" value="DB Subnet group" style="sketch=0;outlineConnect=0;gradientColor=none;html=1;whiteSpace=wrap;fontSize=12;fontStyle=0;shape=mxgraph.aws4.group;grIcon=mxgraph.aws4.group_subnet;strokeColor=#879196;fillColor=none;verticalAlign=top;align=left;spacingLeft=30;fontColor=#879196;dashed=0;" vertex="1" parent="Kxm4nDpjLRUfAWtQnXv4-36">
          <mxGeometry x="60" y="276" width="530" height="564" as="geometry" />
        </mxCell>
        <mxCell id="Kxm4nDpjLRUfAWtQnXv4-54" value="PrivateSubnetC" style="text;html=1;align=center;verticalAlign=middle;resizable=0;points=[];autosize=1;strokeColor=none;fillColor=none;" vertex="1" parent="Kxm4nDpjLRUfAWtQnXv4-36">
          <mxGeometry x="160" y="806" width="100" height="20" as="geometry" />
        </mxCell>
        <mxCell id="Kxm4nDpjLRUfAWtQnXv4-55" value="PrivateSubnetD" style="text;html=1;align=center;verticalAlign=middle;resizable=0;points=[];autosize=1;strokeColor=none;fillColor=none;" vertex="1" parent="Kxm4nDpjLRUfAWtQnXv4-36">
          <mxGeometry x="415" y="806" width="100" height="20" as="geometry" />
        </mxCell>
        <mxCell id="Kxm4nDpjLRUfAWtQnXv4-56" value="Private subnet" style="points=[[0,0],[0.25,0],[0.5,0],[0.75,0],[1,0],[1,0.25],[1,0.5],[1,0.75],[1,1],[0.75,1],[0.5,1],[0.25,1],[0,1],[0,0.75],[0,0.5],[0,0.25]];outlineConnect=0;gradientColor=none;html=1;whiteSpace=wrap;fontSize=12;fontStyle=0;container=1;pointerEvents=0;collapsible=0;recursiveResize=0;shape=mxgraph.aws4.group;grIcon=mxgraph.aws4.group_security_group;grStroke=0;strokeColor=#147EBA;fillColor=#E6F2F8;verticalAlign=top;align=left;spacingLeft=30;fontColor=#147EBA;dashed=0;" vertex="1" parent="Kxm4nDpjLRUfAWtQnXv4-36">
          <mxGeometry x="90" y="306" width="240" height="494" as="geometry" />
        </mxCell>
        <mxCell id="Kxm4nDpjLRUfAWtQnXv4-72" value="" style="sketch=0;outlineConnect=0;fontColor=#232F3E;gradientColor=none;fillColor=#4D27AA;strokeColor=none;dashed=0;verticalLabelPosition=bottom;verticalAlign=top;align=center;html=1;fontSize=12;fontStyle=0;aspect=fixed;pointerEvents=1;shape=mxgraph.aws4.route_table;" vertex="1" parent="Kxm4nDpjLRUfAWtQnXv4-56">
          <mxGeometry x="80" y="30" width="78" height="76" as="geometry" />
        </mxCell>
        <mxCell id="Kxm4nDpjLRUfAWtQnXv4-57" value="Private subnet" style="points=[[0,0],[0.25,0],[0.5,0],[0.75,0],[1,0],[1,0.25],[1,0.5],[1,0.75],[1,1],[0.75,1],[0.5,1],[0.25,1],[0,1],[0,0.75],[0,0.5],[0,0.25]];outlineConnect=0;gradientColor=none;html=1;whiteSpace=wrap;fontSize=12;fontStyle=0;container=1;pointerEvents=0;collapsible=0;recursiveResize=0;shape=mxgraph.aws4.group;grIcon=mxgraph.aws4.group_security_group;grStroke=0;strokeColor=#147EBA;fillColor=#E6F2F8;verticalAlign=top;align=left;spacingLeft=30;fontColor=#147EBA;dashed=0;" vertex="1" parent="Kxm4nDpjLRUfAWtQnXv4-36">
          <mxGeometry x="340" y="306" width="240" height="494" as="geometry" />
        </mxCell>
        <mxCell id="Kxm4nDpjLRUfAWtQnXv4-90" value="EC2SecurityGroupDefault" style="text;html=1;align=center;verticalAlign=middle;resizable=0;points=[];autosize=1;strokeColor=none;fillColor=none;" vertex="1" parent="Kxm4nDpjLRUfAWtQnXv4-57">
          <mxGeometry x="20" y="330" width="150" height="20" as="geometry" />
        </mxCell>
        <mxCell id="Kxm4nDpjLRUfAWtQnXv4-58" value="Security group" style="fillColor=none;strokeColor=#DD3522;verticalAlign=top;fontStyle=0;fontColor=#DD3522;" vertex="1" parent="Kxm4nDpjLRUfAWtQnXv4-36">
          <mxGeometry x="110" y="656" width="450" height="130" as="geometry" />
        </mxCell>
        <mxCell id="Kxm4nDpjLRUfAWtQnXv4-59" value="" style="sketch=0;points=[[0,0,0],[0.25,0,0],[0.5,0,0],[0.75,0,0],[1,0,0],[0,1,0],[0.25,1,0],[0.5,1,0],[0.75,1,0],[1,1,0],[0,0.25,0],[0,0.5,0],[0,0.75,0],[1,0.25,0],[1,0.5,0],[1,0.75,0]];outlineConnect=0;fontColor=#232F3E;gradientColor=#4D72F3;gradientDirection=north;fillColor=#3334B9;strokeColor=#ffffff;dashed=0;verticalLabelPosition=bottom;verticalAlign=top;align=center;html=1;fontSize=12;fontStyle=0;aspect=fixed;shape=mxgraph.aws4.resourceIcon;resIcon=mxgraph.aws4.rds;" vertex="1" parent="Kxm4nDpjLRUfAWtQnXv4-36">
          <mxGeometry x="295" y="692" width="78" height="78" as="geometry" />
        </mxCell>
        <mxCell id="Kxm4nDpjLRUfAWtQnXv4-60" value="Security group" style="fillColor=none;strokeColor=#DD3522;verticalAlign=top;fontStyle=0;fontColor=#DD3522;" vertex="1" parent="Kxm4nDpjLRUfAWtQnXv4-36">
          <mxGeometry x="111" y="496" width="190" height="132" as="geometry" />
        </mxCell>
        <mxCell id="Kxm4nDpjLRUfAWtQnXv4-74" value="" style="edgeStyle=orthogonalEdgeStyle;rounded=0;orthogonalLoop=1;jettySize=auto;html=1;startArrow=none;startFill=0;endArrow=none;endFill=0;strokeColor=default;strokeWidth=2;dashed=1;dashPattern=1 1;" edge="1" parent="Kxm4nDpjLRUfAWtQnXv4-36" source="Kxm4nDpjLRUfAWtQnXv4-61" target="Kxm4nDpjLRUfAWtQnXv4-72">
          <mxGeometry relative="1" as="geometry" />
        </mxCell>
        <mxCell id="Kxm4nDpjLRUfAWtQnXv4-61" value="" style="sketch=0;points=[[0,0,0],[0.25,0,0],[0.5,0,0],[0.75,0,0],[1,0,0],[0,1,0],[0.25,1,0],[0.5,1,0],[0.75,1,0],[1,1,0],[0,0.25,0],[0,0.5,0],[0,0.75,0],[1,0.25,0],[1,0.5,0],[1,0.75,0]];outlineConnect=0;fontColor=#232F3E;gradientColor=#4D72F3;gradientDirection=north;fillColor=#3334B9;strokeColor=#ffffff;dashed=0;verticalLabelPosition=bottom;verticalAlign=top;align=center;html=1;fontSize=12;fontStyle=0;aspect=fixed;shape=mxgraph.aws4.resourceIcon;resIcon=mxgraph.aws4.cloud9;" vertex="1" parent="Kxm4nDpjLRUfAWtQnXv4-36">
          <mxGeometry x="170" y="523" width="78" height="78" as="geometry" />
        </mxCell>
        <mxCell id="Kxm4nDpjLRUfAWtQnXv4-62" style="edgeStyle=orthogonalEdgeStyle;rounded=0;orthogonalLoop=1;jettySize=auto;html=1;startArrow=none;startFill=0;endArrow=classic;endFill=1;strokeColor=default;strokeWidth=2;" edge="1" parent="Kxm4nDpjLRUfAWtQnXv4-36" source="Kxm4nDpjLRUfAWtQnXv4-61" target="Kxm4nDpjLRUfAWtQnXv4-59">
          <mxGeometry relative="1" as="geometry" />
        </mxCell>
        <mxCell id="Kxm4nDpjLRUfAWtQnXv4-63" value="Public subnet" style="points=[[0,0],[0.25,0],[0.5,0],[0.75,0],[1,0],[1,0.25],[1,0.5],[1,0.75],[1,1],[0.75,1],[0.5,1],[0.25,1],[0,1],[0,0.75],[0,0.5],[0,0.25]];outlineConnect=0;gradientColor=none;html=1;whiteSpace=wrap;fontSize=12;fontStyle=0;container=1;pointerEvents=0;collapsible=0;recursiveResize=0;shape=mxgraph.aws4.group;grIcon=mxgraph.aws4.group_security_group;grStroke=0;strokeColor=#248814;fillColor=#E9F3E6;verticalAlign=top;align=left;spacingLeft=30;fontColor=#248814;dashed=0;" vertex="1" parent="Kxm4nDpjLRUfAWtQnXv4-36">
          <mxGeometry x="90" y="76" width="490" height="180" as="geometry" />
        </mxCell>
        <mxCell id="Kxm4nDpjLRUfAWtQnXv4-64" value="" style="sketch=0;outlineConnect=0;fontColor=#232F3E;gradientColor=none;fillColor=#4D27AA;strokeColor=none;dashed=0;verticalLabelPosition=bottom;verticalAlign=top;align=center;html=1;fontSize=12;fontStyle=0;aspect=fixed;pointerEvents=1;shape=mxgraph.aws4.nat_gateway;" vertex="1" parent="Kxm4nDpjLRUfAWtQnXv4-63">
          <mxGeometry x="80" y="60" width="78" height="78" as="geometry" />
        </mxCell>
        <mxCell id="Kxm4nDpjLRUfAWtQnXv4-71" value="" style="sketch=0;outlineConnect=0;fontColor=#232F3E;gradientColor=none;fillColor=#4D27AA;strokeColor=none;dashed=0;verticalLabelPosition=bottom;verticalAlign=top;align=center;html=1;fontSize=12;fontStyle=0;aspect=fixed;pointerEvents=1;shape=mxgraph.aws4.route_table;" vertex="1" parent="Kxm4nDpjLRUfAWtQnXv4-63">
          <mxGeometry x="280" y="60" width="78" height="76" as="geometry" />
        </mxCell>
        <mxCell id="Kxm4nDpjLRUfAWtQnXv4-65" value="" style="sketch=0;outlineConnect=0;fontColor=#232F3E;gradientColor=none;fillColor=#D45B07;strokeColor=none;dashed=0;verticalLabelPosition=bottom;verticalAlign=top;align=center;html=1;fontSize=12;fontStyle=0;aspect=fixed;pointerEvents=1;shape=mxgraph.aws4.elastic_ip_address;" vertex="1" parent="Kxm4nDpjLRUfAWtQnXv4-63">
          <mxGeometry x="140" y="30" width="48" height="20" as="geometry" />
        </mxCell>
        <mxCell id="Kxm4nDpjLRUfAWtQnXv4-75" value="" style="edgeStyle=orthogonalEdgeStyle;rounded=0;orthogonalLoop=1;jettySize=auto;html=1;startArrow=none;startFill=0;endArrow=none;endFill=0;strokeColor=default;strokeWidth=2;dashed=1;dashPattern=1 1;" edge="1" parent="Kxm4nDpjLRUfAWtQnXv4-63" source="Kxm4nDpjLRUfAWtQnXv4-64" target="Kxm4nDpjLRUfAWtQnXv4-71">
          <mxGeometry relative="1" as="geometry">
            <mxPoint x="129" y="457" as="sourcePoint" />
            <mxPoint x="128.93103448275883" y="346" as="targetPoint" />
          </mxGeometry>
        </mxCell>
        <mxCell id="Kxm4nDpjLRUfAWtQnXv4-77" value="ElasticIP" style="text;html=1;align=center;verticalAlign=middle;resizable=0;points=[];autosize=1;strokeColor=none;fillColor=none;" vertex="1" parent="Kxm4nDpjLRUfAWtQnXv4-63">
          <mxGeometry x="120" y="10" width="60" height="20" as="geometry" />
        </mxCell>
        <mxCell id="Kxm4nDpjLRUfAWtQnXv4-82" value="NATGateway" style="text;html=1;align=center;verticalAlign=middle;resizable=0;points=[];autosize=1;strokeColor=none;fillColor=none;" vertex="1" parent="Kxm4nDpjLRUfAWtQnXv4-63">
          <mxGeometry x="120" y="136" width="90" height="20" as="geometry" />
        </mxCell>
        <mxCell id="Kxm4nDpjLRUfAWtQnXv4-83" value="PublicSubnetRouteTable" style="text;html=1;align=center;verticalAlign=middle;resizable=0;points=[];autosize=1;strokeColor=none;fillColor=none;" vertex="1" parent="Kxm4nDpjLRUfAWtQnXv4-63">
          <mxGeometry x="300" y="138" width="150" height="20" as="geometry" />
        </mxCell>
        <mxCell id="Kxm4nDpjLRUfAWtQnXv4-84" value="PublicSubnetRouteTableAssociation" style="text;html=1;align=center;verticalAlign=middle;resizable=0;points=[];autosize=1;strokeColor=none;fillColor=none;" vertex="1" parent="Kxm4nDpjLRUfAWtQnXv4-63">
          <mxGeometry x="270" y="156" width="210" height="20" as="geometry" />
        </mxCell>
        <mxCell id="Kxm4nDpjLRUfAWtQnXv4-70" value="" style="edgeStyle=orthogonalEdgeStyle;rounded=0;orthogonalLoop=1;jettySize=auto;html=1;startArrow=none;startFill=0;endArrow=classic;endFill=1;strokeColor=default;strokeWidth=2;" edge="1" parent="Kxm4nDpjLRUfAWtQnXv4-36" source="Kxm4nDpjLRUfAWtQnXv4-72" target="Kxm4nDpjLRUfAWtQnXv4-64">
          <mxGeometry relative="1" as="geometry" />
        </mxCell>
        <mxCell id="Kxm4nDpjLRUfAWtQnXv4-88" value="PrivateSubnetRouteC" style="edgeLabel;html=1;align=center;verticalAlign=middle;resizable=0;points=[];" vertex="1" connectable="0" parent="Kxm4nDpjLRUfAWtQnXv4-70">
          <mxGeometry x="-0.1121" y="1" relative="1" as="geometry">
            <mxPoint x="1" y="-16" as="offset" />
          </mxGeometry>
        </mxCell>
        <mxCell id="Kxm4nDpjLRUfAWtQnXv4-76" value="" style="sketch=0;outlineConnect=0;fontColor=#232F3E;gradientColor=none;fillColor=#BF0816;strokeColor=none;dashed=0;verticalLabelPosition=bottom;verticalAlign=top;align=center;html=1;fontSize=12;fontStyle=0;aspect=fixed;pointerEvents=1;shape=mxgraph.aws4.role;" vertex="1" parent="Kxm4nDpjLRUfAWtQnXv4-36">
          <mxGeometry x="380" y="686" width="48" height="27.08" as="geometry" />
        </mxCell>
        <mxCell id="Kxm4nDpjLRUfAWtQnXv4-87" value="PrivateSubnetRouteTableC" style="text;html=1;align=center;verticalAlign=middle;resizable=0;points=[];autosize=1;strokeColor=none;fillColor=none;" vertex="1" parent="Kxm4nDpjLRUfAWtQnXv4-36">
          <mxGeometry x="213" y="416" width="160" height="20" as="geometry" />
        </mxCell>
        <mxCell id="Kxm4nDpjLRUfAWtQnXv4-89" value="PrivateSubnetRouteTableAssociationC" style="text;html=1;align=center;verticalAlign=middle;resizable=0;points=[];autosize=1;strokeColor=none;fillColor=none;" vertex="1" parent="Kxm4nDpjLRUfAWtQnXv4-36">
          <mxGeometry x="208" y="436" width="220" height="20" as="geometry" />
        </mxCell>
        <mxCell id="Kxm4nDpjLRUfAWtQnXv4-91" value="PublicSubnet" style="text;html=1;align=center;verticalAlign=middle;resizable=0;points=[];autosize=1;strokeColor=none;fillColor=none;" vertex="1" parent="Kxm4nDpjLRUfAWtQnXv4-36">
          <mxGeometry x="100" y="56" width="90" height="20" as="geometry" />
        </mxCell>
        <mxCell id="Kxm4nDpjLRUfAWtQnXv4-97" style="edgeStyle=orthogonalEdgeStyle;rounded=0;orthogonalLoop=1;jettySize=auto;html=1;entryX=0;entryY=0.5;entryDx=0;entryDy=0;entryPerimeter=0;startArrow=none;startFill=0;endArrow=none;endFill=0;strokeColor=default;strokeWidth=2;" edge="1" parent="Kxm4nDpjLRUfAWtQnXv4-36" source="Kxm4nDpjLRUfAWtQnXv4-68" target="Kxm4nDpjLRUfAWtQnXv4-61">
          <mxGeometry relative="1" as="geometry" />
        </mxCell>
        <mxCell id="Kxm4nDpjLRUfAWtQnXv4-68" value="" style="sketch=0;outlineConnect=0;fontColor=#232F3E;gradientColor=none;fillColor=#4D27AA;strokeColor=none;dashed=0;verticalLabelPosition=bottom;verticalAlign=top;align=center;html=1;fontSize=12;fontStyle=0;aspect=fixed;pointerEvents=1;shape=mxgraph.aws4.endpoints;" vertex="1" parent="Kxm4nDpjLRUfAWtQnXv4-36">
          <mxGeometry x="-40" y="407" width="78" height="78" as="geometry" />
        </mxCell>
        <mxCell id="Kxm4nDpjLRUfAWtQnXv4-20" value="" style="sketch=0;outlineConnect=0;fontColor=#232F3E;gradientColor=none;fillColor=#4D27AA;strokeColor=none;dashed=0;verticalLabelPosition=bottom;verticalAlign=top;align=center;html=1;fontSize=12;fontStyle=0;aspect=fixed;pointerEvents=1;shape=mxgraph.aws4.internet_gateway;" vertex="1" parent="1">
          <mxGeometry x="930" y="-10" width="78" height="78" as="geometry" />
        </mxCell>
        <mxCell id="Kxm4nDpjLRUfAWtQnXv4-33" value="" style="edgeStyle=orthogonalEdgeStyle;rounded=0;orthogonalLoop=1;jettySize=auto;html=1;strokeWidth=2;strokeColor=default;startArrow=none;startFill=0;endArrow=none;endFill=0;" edge="1" parent="1" source="Kxm4nDpjLRUfAWtQnXv4-20" target="Kxm4nDpjLRUfAWtQnXv4-71">
          <mxGeometry relative="1" as="geometry">
            <mxPoint x="979.0000000000002" y="277.9999999999999" as="sourcePoint" />
            <mxPoint x="1068.9310344827588" y="210" as="targetPoint" />
          </mxGeometry>
        </mxCell>
        <mxCell id="Kxm4nDpjLRUfAWtQnXv4-86" value="PulblicSubnetInternetRoute" style="edgeLabel;html=1;align=center;verticalAlign=middle;resizable=0;points=[];" vertex="1" connectable="0" parent="Kxm4nDpjLRUfAWtQnXv4-33">
          <mxGeometry x="-0.1399" relative="1" as="geometry">
            <mxPoint y="-16" as="offset" />
          </mxGeometry>
        </mxCell>
        <mxCell id="Kxm4nDpjLRUfAWtQnXv4-78" value="InternetGateway&lt;br&gt;" style="text;html=1;align=center;verticalAlign=middle;resizable=0;points=[];autosize=1;strokeColor=none;fillColor=none;" vertex="1" parent="1">
          <mxGeometry x="919" y="-30" width="100" height="20" as="geometry" />
        </mxCell>
        <mxCell id="Kxm4nDpjLRUfAWtQnXv4-80" value="" style="edgeStyle=orthogonalEdgeStyle;rounded=0;orthogonalLoop=1;jettySize=auto;html=1;startArrow=classic;startFill=1;endArrow=none;endFill=0;strokeColor=default;strokeWidth=2;" edge="1" parent="1" source="Kxm4nDpjLRUfAWtQnXv4-79" target="Kxm4nDpjLRUfAWtQnXv4-78">
          <mxGeometry relative="1" as="geometry" />
        </mxCell>
        <mxCell id="Kxm4nDpjLRUfAWtQnXv4-79" value="" style="aspect=fixed;perimeter=ellipsePerimeter;html=1;align=center;shadow=0;dashed=0;spacingTop=3;image;image=img/lib/active_directory/internet_globe.svg;" vertex="1" parent="1">
          <mxGeometry x="944" y="-120" width="50" height="50" as="geometry" />
        </mxCell>
        <mxCell id="Kxm4nDpjLRUfAWtQnXv4-81" value="AttachInternetGateway&lt;br&gt;" style="text;html=1;align=center;verticalAlign=middle;resizable=0;points=[];autosize=1;strokeColor=none;fillColor=none;" vertex="1" parent="1">
          <mxGeometry x="1008" y="10" width="140" height="20" as="geometry" />
        </mxCell>
        <mxCell id="Kxm4nDpjLRUfAWtQnXv4-93" value="AWS Cloud" style="points=[[0,0],[0.25,0],[0.5,0],[0.75,0],[1,0],[1,0.25],[1,0.5],[1,0.75],[1,1],[0.75,1],[0.5,1],[0.25,1],[0,1],[0,0.75],[0,0.5],[0,0.25]];outlineConnect=0;gradientColor=none;html=1;whiteSpace=wrap;fontSize=12;fontStyle=0;container=1;pointerEvents=0;collapsible=0;recursiveResize=0;shape=mxgraph.aws4.group;grIcon=mxgraph.aws4.group_aws_cloud_alt;strokeColor=#232F3E;fillColor=none;verticalAlign=top;align=left;spacingLeft=30;fontColor=#232F3E;dashed=0;" vertex="1" parent="1">
          <mxGeometry x="50" y="-45" width="1260" height="1095" as="geometry" />
        </mxCell>
        <mxCell id="Kxm4nDpjLRUfAWtQnXv4-94" value="EndpointFromSSM&lt;br&gt;" style="text;html=1;align=center;verticalAlign=middle;resizable=0;points=[];autosize=1;strokeColor=none;fillColor=none;" vertex="1" parent="Kxm4nDpjLRUfAWtQnXv4-93">
          <mxGeometry x="390" y="574" width="120" height="20" as="geometry" />
        </mxCell>
        <mxCell id="Kxm4nDpjLRUfAWtQnXv4-95" value="EndpointFromSSMMessages" style="text;html=1;align=center;verticalAlign=middle;resizable=0;points=[];autosize=1;strokeColor=none;fillColor=none;" vertex="1" parent="Kxm4nDpjLRUfAWtQnXv4-93">
          <mxGeometry x="340" y="594" width="170" height="20" as="geometry" />
        </mxCell>
        <mxCell id="Kxm4nDpjLRUfAWtQnXv4-96" value="EndpointFromEC2Messages" style="text;html=1;align=center;verticalAlign=middle;resizable=0;points=[];autosize=1;strokeColor=none;fillColor=none;" vertex="1" parent="Kxm4nDpjLRUfAWtQnXv4-93">
          <mxGeometry x="340" y="614" width="170" height="20" as="geometry" />
        </mxCell>
        <mxCell id="Kxm4nDpjLRUfAWtQnXv4-99" value="" style="endArrow=classic;html=1;rounded=0;strokeColor=default;strokeWidth=2;" edge="1" parent="Kxm4nDpjLRUfAWtQnXv4-93">
          <mxGeometry width="50" height="50" relative="1" as="geometry">
            <mxPoint x="470" y="535" as="sourcePoint" />
            <mxPoint x="370" y="535" as="targetPoint" />
          </mxGeometry>
        </mxCell>
        <mxCell id="Kxm4nDpjLRUfAWtQnXv4-101" value="VPC" style="text;html=1;align=center;verticalAlign=middle;resizable=0;points=[];autosize=1;strokeColor=none;fillColor=none;" vertex="1" parent="Kxm4nDpjLRUfAWtQnXv4-93">
          <mxGeometry x="540" y="65" width="40" height="20" as="geometry" />
        </mxCell>
        <mxCell id="Kxm4nDpjLRUfAWtQnXv4-104" value="" style="group" vertex="1" connectable="0" parent="Kxm4nDpjLRUfAWtQnXv4-93">
          <mxGeometry x="87.5" y="788" width="140" height="84" as="geometry" />
        </mxCell>
        <mxCell id="Kxm4nDpjLRUfAWtQnXv4-102" value="" style="sketch=0;outlineConnect=0;fontColor=#232F3E;gradientColor=none;fillColor=#D45B07;strokeColor=none;dashed=0;verticalLabelPosition=bottom;verticalAlign=top;align=center;html=1;fontSize=12;fontStyle=0;aspect=fixed;pointerEvents=1;shape=mxgraph.aws4.lambda_function;" vertex="1" parent="Kxm4nDpjLRUfAWtQnXv4-104">
          <mxGeometry x="41" width="58" height="58" as="geometry" />
        </mxCell>
        <mxCell id="Kxm4nDpjLRUfAWtQnXv4-103" value="start-exporting-snapshot" style="text;html=1;align=center;verticalAlign=middle;resizable=0;points=[];autosize=1;strokeColor=none;fillColor=none;" vertex="1" parent="Kxm4nDpjLRUfAWtQnXv4-104">
          <mxGeometry y="64" width="140" height="20" as="geometry" />
        </mxCell>
        <mxCell id="Kxm4nDpjLRUfAWtQnXv4-109" style="edgeStyle=orthogonalEdgeStyle;rounded=0;orthogonalLoop=1;jettySize=auto;html=1;entryX=1;entryY=0.5;entryDx=0;entryDy=0;entryPerimeter=0;startArrow=none;startFill=0;endArrow=classic;endFill=1;strokeColor=default;strokeWidth=2;exitX=0.5;exitY=1;exitDx=0;exitDy=0;exitPerimeter=0;" edge="1" parent="Kxm4nDpjLRUfAWtQnXv4-93" source="Kxm4nDpjLRUfAWtQnXv4-105" target="Kxm4nDpjLRUfAWtQnXv4-108">
          <mxGeometry relative="1" as="geometry" />
        </mxCell>
        <mxCell id="Kxm4nDpjLRUfAWtQnXv4-110" value="receive event" style="edgeLabel;html=1;align=center;verticalAlign=middle;resizable=0;points=[];" vertex="1" connectable="0" parent="Kxm4nDpjLRUfAWtQnXv4-109">
          <mxGeometry x="-0.1943" y="-1" relative="1" as="geometry">
            <mxPoint as="offset" />
          </mxGeometry>
        </mxCell>
        <mxCell id="Kxm4nDpjLRUfAWtQnXv4-115" style="edgeStyle=orthogonalEdgeStyle;rounded=0;orthogonalLoop=1;jettySize=auto;html=1;startArrow=none;startFill=0;endArrow=classic;endFill=1;strokeColor=default;strokeWidth=2;" edge="1" parent="Kxm4nDpjLRUfAWtQnXv4-93" source="Kxm4nDpjLRUfAWtQnXv4-105" target="Kxm4nDpjLRUfAWtQnXv4-113">
          <mxGeometry relative="1" as="geometry">
            <Array as="points">
              <mxPoint x="350" y="820" />
              <mxPoint x="350" y="653" />
            </Array>
          </mxGeometry>
        </mxCell>
        <mxCell id="Kxm4nDpjLRUfAWtQnXv4-118" value="export .parquet file" style="edgeLabel;html=1;align=center;verticalAlign=middle;resizable=0;points=[];" vertex="1" connectable="0" parent="Kxm4nDpjLRUfAWtQnXv4-115">
          <mxGeometry x="0.1453" y="-1" relative="1" as="geometry">
            <mxPoint y="53" as="offset" />
          </mxGeometry>
        </mxCell>
        <mxCell id="Kxm4nDpjLRUfAWtQnXv4-105" value="" style="sketch=0;points=[[0,0,0],[0.25,0,0],[0.5,0,0],[0.75,0,0],[1,0,0],[0,1,0],[0.25,1,0],[0.5,1,0],[0.75,1,0],[1,1,0],[0,0.25,0],[0,0.5,0],[0,0.75,0],[1,0.25,0],[1,0.5,0],[1,0.75,0]];outlineConnect=0;fontColor=#232F3E;gradientColor=#4D72F3;gradientDirection=north;fillColor=#3334B9;strokeColor=#ffffff;dashed=0;verticalLabelPosition=bottom;verticalAlign=top;align=center;html=1;fontSize=12;fontStyle=0;aspect=fixed;shape=mxgraph.aws4.resourceIcon;resIcon=mxgraph.aws4.rds;" vertex="1" parent="Kxm4nDpjLRUfAWtQnXv4-93">
          <mxGeometry x="390" y="781" width="78" height="78" as="geometry" />
        </mxCell>
        <mxCell id="Kxm4nDpjLRUfAWtQnXv4-108" value="" style="sketch=0;points=[[0,0,0],[0.25,0,0],[0.5,0,0],[0.75,0,0],[1,0,0],[0,1,0],[0.25,1,0],[0.5,1,0],[0.75,1,0],[1,1,0],[0,0.25,0],[0,0.5,0],[0,0.75,0],[1,0.25,0],[1,0.5,0],[1,0.75,0]];outlineConnect=0;fontColor=#232F3E;gradientColor=#FF4F8B;gradientDirection=north;fillColor=#BC1356;strokeColor=#ffffff;dashed=0;verticalLabelPosition=bottom;verticalAlign=top;align=center;html=1;fontSize=12;fontStyle=0;aspect=fixed;shape=mxgraph.aws4.resourceIcon;resIcon=mxgraph.aws4.eventbridge;" vertex="1" parent="Kxm4nDpjLRUfAWtQnXv4-93">
          <mxGeometry x="262" y="935" width="78" height="78" as="geometry" />
        </mxCell>
        <mxCell id="Kxm4nDpjLRUfAWtQnXv4-111" style="edgeStyle=orthogonalEdgeStyle;rounded=0;orthogonalLoop=1;jettySize=auto;html=1;entryX=0.503;entryY=1.139;entryDx=0;entryDy=0;entryPerimeter=0;startArrow=none;startFill=0;endArrow=classic;endFill=1;strokeColor=default;strokeWidth=2;exitX=0;exitY=0.5;exitDx=0;exitDy=0;exitPerimeter=0;" edge="1" parent="Kxm4nDpjLRUfAWtQnXv4-93" source="Kxm4nDpjLRUfAWtQnXv4-108" target="Kxm4nDpjLRUfAWtQnXv4-103">
          <mxGeometry relative="1" as="geometry">
            <mxPoint x="315.0370370370367" y="869" as="sourcePoint" />
            <mxPoint x="288" y="984" as="targetPoint" />
          </mxGeometry>
        </mxCell>
        <mxCell id="Kxm4nDpjLRUfAWtQnXv4-112" value="kick Lambda function" style="edgeLabel;html=1;align=center;verticalAlign=middle;resizable=0;points=[];" vertex="1" connectable="0" parent="Kxm4nDpjLRUfAWtQnXv4-111">
          <mxGeometry x="-0.1943" y="-1" relative="1" as="geometry">
            <mxPoint x="-44" y="-28" as="offset" />
          </mxGeometry>
        </mxCell>
        <mxCell id="Kxm4nDpjLRUfAWtQnXv4-113" value="" style="sketch=0;outlineConnect=0;fontColor=#232F3E;gradientColor=none;fillColor=#3F8624;strokeColor=none;dashed=0;verticalLabelPosition=bottom;verticalAlign=top;align=center;html=1;fontSize=12;fontStyle=0;aspect=fixed;pointerEvents=1;shape=mxgraph.aws4.bucket_with_objects;" vertex="1" parent="Kxm4nDpjLRUfAWtQnXv4-93">
          <mxGeometry x="180" y="545" width="75" height="78" as="geometry" />
        </mxCell>
        <mxCell id="Kxm4nDpjLRUfAWtQnXv4-128" style="edgeStyle=orthogonalEdgeStyle;rounded=0;orthogonalLoop=1;jettySize=auto;html=1;startArrow=none;startFill=0;endArrow=classic;endFill=1;strokeColor=default;strokeWidth=2;" edge="1" parent="Kxm4nDpjLRUfAWtQnXv4-93" source="Kxm4nDpjLRUfAWtQnXv4-119" target="Kxm4nDpjLRUfAWtQnXv4-127">
          <mxGeometry relative="1" as="geometry" />
        </mxCell>
        <mxCell id="Kxm4nDpjLRUfAWtQnXv4-119" value="" style="sketch=0;points=[[0,0,0],[0.25,0,0],[0.5,0,0],[0.75,0,0],[1,0,0],[0,1,0],[0.25,1,0],[0.5,1,0],[0.75,1,0],[1,1,0],[0,0.25,0],[0,0.5,0],[0,0.75,0],[1,0.25,0],[1,0.5,0],[1,0.75,0]];outlineConnect=0;fontColor=#232F3E;gradientColor=#FF4F8B;gradientDirection=north;fillColor=#BC1356;strokeColor=#ffffff;dashed=0;verticalLabelPosition=bottom;verticalAlign=top;align=center;html=1;fontSize=12;fontStyle=0;aspect=fixed;shape=mxgraph.aws4.resourceIcon;resIcon=mxgraph.aws4.eventbridge;" vertex="1" parent="Kxm4nDpjLRUfAWtQnXv4-93">
          <mxGeometry x="36" y="508.5" width="78" height="78" as="geometry" />
        </mxCell>
        <mxCell id="Kxm4nDpjLRUfAWtQnXv4-138" style="edgeStyle=orthogonalEdgeStyle;rounded=0;orthogonalLoop=1;jettySize=auto;html=1;startArrow=none;startFill=0;endArrow=none;endFill=0;strokeColor=default;strokeWidth=2;" edge="1" parent="Kxm4nDpjLRUfAWtQnXv4-93" source="Kxm4nDpjLRUfAWtQnXv4-122" target="Kxm4nDpjLRUfAWtQnXv4-137">
          <mxGeometry relative="1" as="geometry" />
        </mxCell>
        <mxCell id="Kxm4nDpjLRUfAWtQnXv4-141" style="edgeStyle=orthogonalEdgeStyle;rounded=0;orthogonalLoop=1;jettySize=auto;html=1;startArrow=none;startFill=0;endArrow=classic;endFill=1;strokeColor=default;strokeWidth=2;" edge="1" parent="Kxm4nDpjLRUfAWtQnXv4-93" source="Kxm4nDpjLRUfAWtQnXv4-122" target="Kxm4nDpjLRUfAWtQnXv4-133">
          <mxGeometry relative="1" as="geometry" />
        </mxCell>
        <mxCell id="Kxm4nDpjLRUfAWtQnXv4-122" value="" style="sketch=0;outlineConnect=0;fontColor=#232F3E;gradientColor=none;fillColor=#3F8624;strokeColor=none;dashed=0;verticalLabelPosition=bottom;verticalAlign=top;align=center;html=1;fontSize=12;fontStyle=0;aspect=fixed;pointerEvents=1;shape=mxgraph.aws4.bucket_with_objects;" vertex="1" parent="Kxm4nDpjLRUfAWtQnXv4-93">
          <mxGeometry x="180" y="295" width="75" height="78" as="geometry" />
        </mxCell>
        <mxCell id="Kxm4nDpjLRUfAWtQnXv4-125" value="" style="group" vertex="1" connectable="0" parent="Kxm4nDpjLRUfAWtQnXv4-93">
          <mxGeometry x="5" y="395" width="140" height="84" as="geometry" />
        </mxCell>
        <mxCell id="Kxm4nDpjLRUfAWtQnXv4-126" value="" style="sketch=0;outlineConnect=0;fontColor=#232F3E;gradientColor=none;fillColor=#D45B07;strokeColor=none;dashed=0;verticalLabelPosition=bottom;verticalAlign=top;align=center;html=1;fontSize=12;fontStyle=0;aspect=fixed;pointerEvents=1;shape=mxgraph.aws4.lambda_function;" vertex="1" parent="Kxm4nDpjLRUfAWtQnXv4-125">
          <mxGeometry x="41" width="58" height="58" as="geometry" />
        </mxCell>
        <mxCell id="Kxm4nDpjLRUfAWtQnXv4-127" value="start-move-raw-file" style="text;html=1;align=center;verticalAlign=middle;resizable=0;points=[];autosize=1;strokeColor=none;fillColor=none;" vertex="1" parent="Kxm4nDpjLRUfAWtQnXv4-125">
          <mxGeometry x="15" y="64" width="110" height="20" as="geometry" />
        </mxCell>
        <mxCell id="Kxm4nDpjLRUfAWtQnXv4-129" style="edgeStyle=orthogonalEdgeStyle;rounded=0;orthogonalLoop=1;jettySize=auto;html=1;startArrow=classic;startFill=1;endArrow=none;endFill=0;strokeColor=default;strokeWidth=2;" edge="1" parent="Kxm4nDpjLRUfAWtQnXv4-93" source="Kxm4nDpjLRUfAWtQnXv4-126" target="Kxm4nDpjLRUfAWtQnXv4-113">
          <mxGeometry relative="1" as="geometry">
            <Array as="points">
              <mxPoint x="218" y="435" />
            </Array>
          </mxGeometry>
        </mxCell>
        <mxCell id="Kxm4nDpjLRUfAWtQnXv4-130" style="edgeStyle=orthogonalEdgeStyle;rounded=0;orthogonalLoop=1;jettySize=auto;html=1;startArrow=none;startFill=0;endArrow=classic;endFill=1;strokeColor=default;strokeWidth=2;" edge="1" parent="Kxm4nDpjLRUfAWtQnXv4-93" source="Kxm4nDpjLRUfAWtQnXv4-126" target="Kxm4nDpjLRUfAWtQnXv4-122">
          <mxGeometry relative="1" as="geometry" />
        </mxCell>
        <mxCell id="Kxm4nDpjLRUfAWtQnXv4-131" value="bucket for raw_file" style="text;html=1;align=center;verticalAlign=middle;resizable=0;points=[];autosize=1;strokeColor=none;fillColor=none;" vertex="1" parent="Kxm4nDpjLRUfAWtQnXv4-93">
          <mxGeometry x="215" y="525" width="110" height="20" as="geometry" />
        </mxCell>
        <mxCell id="Kxm4nDpjLRUfAWtQnXv4-132" value="bucket for raw_data" style="text;html=1;align=center;verticalAlign=middle;resizable=0;points=[];autosize=1;strokeColor=none;fillColor=none;" vertex="1" parent="Kxm4nDpjLRUfAWtQnXv4-93">
          <mxGeometry x="220" y="275" width="120" height="20" as="geometry" />
        </mxCell>
        <mxCell id="Kxm4nDpjLRUfAWtQnXv4-142" style="edgeStyle=orthogonalEdgeStyle;rounded=0;orthogonalLoop=1;jettySize=auto;html=1;startArrow=none;startFill=0;endArrow=classic;endFill=1;strokeColor=default;strokeWidth=2;" edge="1" parent="Kxm4nDpjLRUfAWtQnXv4-93" source="Kxm4nDpjLRUfAWtQnXv4-133" target="Kxm4nDpjLRUfAWtQnXv4-137">
          <mxGeometry relative="1" as="geometry">
            <Array as="points">
              <mxPoint x="79" y="164" />
            </Array>
          </mxGeometry>
        </mxCell>
        <mxCell id="Kxm4nDpjLRUfAWtQnXv4-133" value="" style="sketch=0;outlineConnect=0;fontColor=#232F3E;gradientColor=none;fillColor=#4D27AA;strokeColor=none;dashed=0;verticalLabelPosition=bottom;verticalAlign=top;align=center;html=1;fontSize=12;fontStyle=0;aspect=fixed;pointerEvents=1;shape=mxgraph.aws4.glue_crawlers;" vertex="1" parent="Kxm4nDpjLRUfAWtQnXv4-93">
          <mxGeometry x="40" y="203" width="78" height="78" as="geometry" />
        </mxCell>
        <mxCell id="Kxm4nDpjLRUfAWtQnXv4-140" style="edgeStyle=orthogonalEdgeStyle;rounded=0;orthogonalLoop=1;jettySize=auto;html=1;startArrow=none;startFill=0;endArrow=classic;endFill=1;strokeColor=default;strokeWidth=2;" edge="1" parent="Kxm4nDpjLRUfAWtQnXv4-93" source="Kxm4nDpjLRUfAWtQnXv4-137" target="Kxm4nDpjLRUfAWtQnXv4-139">
          <mxGeometry relative="1" as="geometry" />
        </mxCell>
        <mxCell id="Kxm4nDpjLRUfAWtQnXv4-137" value="" style="sketch=0;outlineConnect=0;fontColor=#232F3E;gradientColor=none;fillColor=#4D27AA;strokeColor=none;dashed=0;verticalLabelPosition=bottom;verticalAlign=top;align=center;html=1;fontSize=12;fontStyle=0;aspect=fixed;pointerEvents=1;shape=mxgraph.aws4.glue_data_catalog;" vertex="1" parent="Kxm4nDpjLRUfAWtQnXv4-93">
          <mxGeometry x="182" y="125" width="72" height="78" as="geometry" />
        </mxCell>
        <mxCell id="Kxm4nDpjLRUfAWtQnXv4-139" value="" style="sketch=0;points=[[0,0,0],[0.25,0,0],[0.5,0,0],[0.75,0,0],[1,0,0],[0,1,0],[0.25,1,0],[0.5,1,0],[0.75,1,0],[1,1,0],[0,0.25,0],[0,0.5,0],[0,0.75,0],[1,0.25,0],[1,0.5,0],[1,0.75,0]];outlineConnect=0;fontColor=#232F3E;gradientColor=#945DF2;gradientDirection=north;fillColor=#5A30B5;strokeColor=#ffffff;dashed=0;verticalLabelPosition=bottom;verticalAlign=top;align=center;html=1;fontSize=12;fontStyle=0;aspect=fixed;shape=mxgraph.aws4.resourceIcon;resIcon=mxgraph.aws4.athena;" vertex="1" parent="Kxm4nDpjLRUfAWtQnXv4-93">
          <mxGeometry x="325" y="125" width="78" height="78" as="geometry" />
        </mxCell>
        <mxCell id="Kxm4nDpjLRUfAWtQnXv4-106" style="edgeStyle=orthogonalEdgeStyle;rounded=0;orthogonalLoop=1;jettySize=auto;html=1;startArrow=none;startFill=0;endArrow=classic;endFill=1;strokeColor=default;strokeWidth=2;" edge="1" parent="1" source="Kxm4nDpjLRUfAWtQnXv4-59" target="Kxm4nDpjLRUfAWtQnXv4-105">
          <mxGeometry relative="1" as="geometry" />
        </mxCell>
        <mxCell id="Kxm4nDpjLRUfAWtQnXv4-107" value="create snapshot" style="edgeLabel;html=1;align=center;verticalAlign=middle;resizable=0;points=[];" vertex="1" connectable="0" parent="Kxm4nDpjLRUfAWtQnXv4-106">
          <mxGeometry x="-0.0957" relative="1" as="geometry">
            <mxPoint as="offset" />
          </mxGeometry>
        </mxCell>
        <mxCell id="Kxm4nDpjLRUfAWtQnXv4-116" style="edgeStyle=orthogonalEdgeStyle;rounded=0;orthogonalLoop=1;jettySize=auto;html=1;startArrow=none;startFill=0;endArrow=classic;endFill=1;strokeColor=default;strokeWidth=2;" edge="1" parent="1" source="Kxm4nDpjLRUfAWtQnXv4-102">
          <mxGeometry relative="1" as="geometry">
            <mxPoint x="400" y="772" as="targetPoint" />
          </mxGeometry>
        </mxCell>
        <mxCell id="Kxm4nDpjLRUfAWtQnXv4-117" value="start _export_task" style="edgeLabel;html=1;align=center;verticalAlign=middle;resizable=0;points=[];" vertex="1" connectable="0" parent="Kxm4nDpjLRUfAWtQnXv4-116">
          <mxGeometry x="-0.2086" relative="1" as="geometry">
            <mxPoint x="9" y="-7" as="offset" />
          </mxGeometry>
        </mxCell>
        <mxCell id="Kxm4nDpjLRUfAWtQnXv4-120" style="edgeStyle=orthogonalEdgeStyle;rounded=0;orthogonalLoop=1;jettySize=auto;html=1;startArrow=classic;startFill=1;endArrow=none;endFill=0;strokeColor=default;strokeWidth=2;exitX=0.5;exitY=1;exitDx=0;exitDy=0;exitPerimeter=0;" edge="1" parent="1" source="Kxm4nDpjLRUfAWtQnXv4-119">
          <mxGeometry relative="1" as="geometry">
            <mxPoint x="346" y="660" as="targetPoint" />
            <mxPoint x="110" y="540" as="sourcePoint" />
            <Array as="points">
              <mxPoint x="125" y="660" />
            </Array>
          </mxGeometry>
        </mxCell>
        <mxCell id="Kxm4nDpjLRUfAWtQnXv4-121" value="receive event" style="edgeLabel;html=1;align=center;verticalAlign=middle;resizable=0;points=[];" vertex="1" connectable="0" parent="Kxm4nDpjLRUfAWtQnXv4-120">
          <mxGeometry x="-0.2742" y="-1" relative="1" as="geometry">
            <mxPoint as="offset" />
          </mxGeometry>
        </mxCell>
      </root>
    </mxGraphModel>
  </diagram>
</mxfile>
